<svg width="1073" height="1024" viewBox="0 0 1073 1024" fill="none" xmlns="http://www.w3.org/2000/svg">
<path d="M773.782 501.736L774.781 549.429C752.815 542.363 732.847 526.466 709.883 501.736L747.823 560.027L746.825 658.946L832.69 731.368L834.687 532.648L773.782 501.736ZM780.771 658.946C774.781 658.946 770.787 650.997 770.787 640.398C770.787 630.683 775.779 621.851 780.771 621.851C785.763 621.851 790.756 629.8 790.756 640.398C791.754 650.114 786.762 658.946 780.771 658.946ZM792.753 567.976C786.762 567.976 781.77 560.027 781.77 549.429C781.77 539.714 786.762 530.882 792.753 530.882C798.743 530.882 802.737 538.83 802.737 549.429C802.737 560.027 798.743 567.976 792.753 567.976ZM813.719 620.968C807.729 620.968 802.737 613.019 802.737 602.421C802.737 591.822 807.729 583.874 813.719 583.874C819.71 583.874 823.704 591.822 823.704 602.421C823.704 613.019 819.71 620.968 813.719 620.968ZM841.676 260.622V317.147L815.716 321.563L841.676 337.461V423.131L783.767 395.752L781.77 315.381C758.806 319.797 728.853 335.694 708.884 361.307C704.891 305.666 708.885 250.907 721.864 195.266L781.77 230.594L749.82 281.819L798.743 242.958L841.676 260.622ZM1073.31 504.386L1074.31 549.429C1104.26 540.597 1119.24 516.75 1140.21 491.138L1101.27 558.261L1102.27 657.179L1015.4 732.251L1014.4 530.882L1026.38 526.466L1036.37 572.392L1044.36 516.75L1073.31 504.386ZM1068.32 657.179C1074.31 657.179 1078.3 649.23 1078.3 638.632C1078.3 628.917 1073.31 620.085 1068.32 620.085C1063.33 620.085 1058.33 628.034 1058.33 638.632C1057.34 649.23 1062.33 657.179 1068.32 657.179ZM1058.33 567.976C1064.33 567.976 1069.32 560.027 1069.32 549.429C1069.32 539.714 1064.33 530.882 1058.33 530.882C1052.34 530.882 1048.35 538.83 1048.35 549.429C1047.35 560.027 1052.34 567.976 1058.33 567.976ZM1035.37 620.085C1041.36 620.085 1046.35 612.136 1046.35 601.538C1046.35 590.939 1041.36 582.99 1035.37 582.99C1029.38 582.99 1025.39 590.939 1025.39 601.538C1025.39 612.136 1029.38 620.085 1035.37 620.085ZM1127.23 194.382C1140.21 250.907 1145.2 306.549 1140.21 360.424C1124.23 338.344 1092.28 320.68 1067.32 314.498L1061.33 393.102L1041.36 402.818L1024.39 347.176L1019.4 410.766L1010.41 414.299L1004.42 260.622L1127.23 194.382ZM536.156 328.629L552.131 337.461L554.128 509.685C554.128 509.685 531.164 509.685 530.166 475.24L524.175 333.928C524.175 328.629 531.164 325.096 536.156 328.629ZM535.158 311.848C530.166 309.198 530.166 302.133 535.158 299.483L588.075 272.104L614.034 286.235L551.133 321.563L535.158 311.848ZM633.004 311.848L638.994 245.608L657.965 256.206L651.974 330.395L640.991 325.979C635.999 323.33 632.005 317.147 633.004 311.848ZM681.927 219.995C689.914 227.061 687.917 239.426 677.933 244.725L669.946 249.141L644.985 236.776L681.927 219.995ZM1281.98 288.002C1285.98 291.534 1298.96 296.834 1302.95 320.68L1304.95 512.334C1304.95 515.867 1303.95 518.517 1300.95 521.166L1282.98 539.714C1280.98 541.48 1277.99 540.597 1276.99 537.947C1274.99 460.226 1272 382.504 1271 331.278C1271 320.68 1266.01 310.082 1257.02 302.133C1228.07 276.52 1196.12 264.155 1159.18 247.374C1150.19 242.958 1151.19 232.36 1149.19 223.528L1148.19 216.462C1207.1 235.893 1238.05 255.323 1281.98 288.002ZM607.045 599.771L630.009 591.822C635.001 589.173 641.99 593.589 645.983 597.122L813.719 779.061L913.562 840.002C919.553 845.301 929.537 845.301 935.528 839.118L1042.36 771.112L1222.08 592.706C1225.07 590.056 1229.07 589.173 1232.06 590.056L1251.03 590.939C1259.02 592.706 1262.01 599.771 1258.02 605.954L1198.11 749.032C1195.12 753.448 1190.13 755.214 1185.14 755.214L1129.22 760.514C1121.24 759.63 1114.25 763.163 1109.25 768.462L939.522 904.475C935.528 908.891 929.537 912.424 923.547 913.307L859.647 925.672C850.661 927.438 840.677 926.555 831.691 923.022L761.801 885.928C752.815 882.395 747.823 872.68 747.823 864.731C733.845 771.995 702.894 712.821 669.946 674.843C636.998 637.749 605.048 612.136 605.048 612.136C600.056 608.603 601.054 602.421 607.045 599.771ZM397.375 336.578L423.334 310.082L521.18 547.662C526.172 560.027 534.159 571.509 544.144 581.224C666.95 681.026 707.886 739.317 727.855 872.68C728.853 877.096 725.858 880.629 720.866 881.512L695.905 885.928C693.908 871.797 690.913 855.899 688.916 839.118C685.921 814.389 678.932 789.659 671.943 771.995C653.971 737.55 637.996 719.886 609.042 690.741L522.178 603.304C504.207 584.757 487.233 563.56 479.246 539.714L394.379 356.891C391.384 349.826 392.383 342.76 397.375 336.578ZM1011.41 1200.35C1011.41 1201.23 1010.41 1201.23 1010.41 1202.11C1009.41 1202.11 1010.41 1201.23 1011.41 1200.35ZM1543.57 493.787L1526.6 483.189C1513.62 474.357 1498.64 468.174 1483.67 463.758L1477.67 461.992L1472.68 443.445C1469.69 431.963 1460.7 421.365 1448.72 416.949L1343.89 372.789C1338.89 371.022 1332.9 373.672 1332.9 378.971L1334.9 514.101C1334.9 524.699 1330.91 536.181 1323.92 545.013L1282.98 613.019L1207.1 779.061C1204.11 782.594 1199.11 784.36 1195.12 784.36L1136.21 787.01C1130.22 786.126 1124.23 788.776 1120.24 793.192L956.495 923.022C951.503 929.205 944.514 933.621 936.526 935.387L862.643 951.285C853.657 953.934 844.671 957.467 835.685 961.883L589.073 1075.82L646.982 1066.1C674.938 1063.45 646.982 1079.35 647.98 1097.01C684.922 1094.36 656.966 1142.94 605.048 1158.84C609.042 1159.72 636.998 1165.02 627.013 1168.55C639.993 1172.97 652.972 1172.08 664.954 1166.79C669.946 1175.62 656.966 1191.52 626.015 1215.36C634.002 1219.78 639.993 1221.54 645.983 1220.66C657.965 1226.84 635.001 1250.69 608.043 1245.39C640.991 1259.52 678.932 1261.29 710.881 1243.62C744.828 1222.43 784.765 1201.23 816.715 1189.75C820.709 1195.93 823.704 1211.83 815.716 1218.01C827.697 1228.61 844.671 1219.78 852.658 1239.21C849.663 1250.69 828.696 1260.4 813.719 1258.64C831.691 1276.3 894.592 1269.24 921.55 1243.62C919.553 1225.96 928.539 1218.89 943.515 1204.76C965.481 1192.4 989.443 1180.92 1024.39 1178.27C1028.38 1183.57 1015.4 1190.63 1010.41 1199.46C1020.39 1190.63 1106.26 1155.3 1129.22 1159.72C1139.21 1176.5 1121.24 1189.75 1066.32 1217.13C1153.19 1189.75 1204.11 1166.79 1226.07 1075.82C1291.97 949.518 1355.87 817.922 1452.71 759.63C1457.71 790.542 1447.72 811.739 1430.75 825.87C1451.72 831.17 1507.63 743.733 1507.63 743.733C1490.65 741.083 1500.64 659.829 1527.6 640.398C1525.6 601.538 1545.57 582.107 1547.56 561.794C1550.56 532.648 1540.58 511.451 1543.57 493.787ZM882.611 1178.27C880.614 1178.27 875.622 1173.85 873.625 1168.55L895.591 1160.6L882.611 1178.27ZM945.512 1159.72L950.504 1155.3C952.501 1153.54 954.498 1152.65 957.493 1153.54L964.482 1157.07L945.512 1159.72ZM1180.14 1080.23C1178.15 1082 1191.13 1099.66 1186.13 1099.66C1171.16 1099.66 1130.22 1092.6 1141.2 1083.76C1152.19 1074.05 1168.16 1062.57 1175.15 1055.5C1182.14 1048.44 1194.12 1065.22 1200.11 1072.28C1206.1 1077.58 1184.14 1074.93 1180.14 1080.23ZM723.861 894.76L809.726 942.453C813.719 945.102 813.719 950.402 809.726 953.051L650.976 1028.12C644.985 1030.77 635.001 1031.66 633.004 1026.36C612.037 986.613 554.128 1021.94 536.156 1029.89C536.156 1029.89 565.111 988.379 583.082 976.014C581.086 967.182 575.095 963.65 566.109 961.883C564.112 942.453 573.098 919.49 584.081 894.76C576.093 897.41 571.101 903.592 555.126 908.891C566.109 900.059 567.108 890.344 575.095 885.045C562.115 884.162 556.125 886.811 552.131 888.578C552.131 888.578 555.126 882.395 564.112 876.213C573.098 867.381 567.108 862.965 548.137 863.848C486.235 870.03 457.28 911.541 457.28 911.541C456.282 901.826 463.271 889.461 470.26 879.746C479.246 872.68 488.232 842.651 460.276 864.731C457.28 864.731 487.233 813.506 513.192 801.141C505.205 798.491 495.221 802.024 486.235 806.44L527.17 755.214C498.216 750.798 484.238 755.214 485.236 758.747C485.236 758.747 483.24 749.032 486.235 746.382C486.235 746.382 463.271 738.434 441.306 767.579C447.296 738.434 446.298 736.667 476.251 712.821L447.296 690.741C433.318 691.624 426.329 698.69 409.356 724.302C406.361 706.638 411.353 682.792 422.335 665.128C419.34 665.128 412.351 661.595 387.39 677.493C400.37 656.296 343.46 666.894 326.486 692.507C326.486 692.507 319.497 673.077 334.474 653.646C346.455 638.632 361.431 629.8 361.431 629.8C362.43 625.384 353.444 628.034 341.463 631.566C341.463 631.566 352.445 615.669 361.431 610.37C339.466 588.29 318.499 559.144 297.532 526.466C296.533 524.699 296.533 522.933 298.53 522.05L355.441 484.072C357.438 483.189 359.434 484.072 360.433 485.838C396.376 589.173 467.265 670.427 527.17 727.835C602.053 798.491 619.026 884.162 617.029 951.285C617.029 963.65 616.031 976.014 614.034 986.613C637.996 1007.81 668.947 1011.34 705.889 987.496L700.897 900.942M630.009 738.434C590.071 692.507 560.119 666.894 518.185 626.267C496.219 605.07 469.262 563.56 457.28 537.064L416.345 446.094L371.416 474.357C397.375 544.13 448.295 625.384 501.211 682.792C554.128 729.602 589.073 760.514 608.043 817.038C626.015 870.914 632.005 923.022 627.013 979.547C647.98 991.912 663.955 991.912 684.922 979.547C685.921 917.723 676.935 857.666 661.958 798.491C656.966 774.645 645.983 756.981 630.009 738.434ZM656.966 975.131C648.979 975.131 641.99 968.949 641.99 961.883C641.99 954.818 648.979 948.635 656.966 948.635C665.952 948.635 671.943 954.818 671.943 961.883C671.943 968.949 665.952 975.131 656.966 975.131ZM781.77 219.112L724.859 187.317L731.848 154.638C775.779 112.245 841.676 99.88 923.547 93.6976C1015.4 96.3472 1075.31 118.427 1113.25 154.638L1123.23 186.434L1018.4 239.426C1005.42 245.608 991.44 250.907 977.462 252.674L920.551 263.272L868.633 254.44C857.65 252.674 845.669 249.141 835.685 244.725L813.719 235.893C810.724 234.126 808.727 230.594 810.724 227.944L846.668 178.485L790.756 219.112C788.759 219.995 784.765 220.878 781.77 219.112ZM913.562 771.995L912.564 275.637L854.655 263.272L855.654 317.147L876.621 337.461L854.655 339.227V440.795L769.789 401.051V335.694C732.847 349.826 709.883 360.424 687.917 411.65C692.91 460.226 710.881 501.736 762.8 529.998V486.722L847.666 526.466V746.382L913.562 771.995ZM744.828 454.043V413.416L868.633 469.058V508.802L744.828 454.043ZM932.533 771.995V274.754L994.435 261.506L992.438 439.912L1075.31 401.051L1078.3 328.629C1115.24 342.76 1131.22 357.774 1153.19 409.883C1148.19 458.459 1138.21 499.97 1086.29 529.115V485.838L1001.42 525.582V745.499L932.533 771.995ZM1101.27 454.926L1102.27 414.299L981.456 468.174V507.918L1101.27 454.926Z" fill="white"/>
</svg>
